# xmcd
#
# Track frame offsets:
#	150
#	17902
#	34712
#	53445
#	71130
#	89532
#	104097
#	122097
#	138237
#	154295
#	169520
#	185412
#
# Disc length: 2654 seconds
#
# Revision: 3
# Processed by: cddbd v1.5.2PL0 Copyright (c) Steve Scherf et al.
# Submitted via: EasyCDDAExtractor 15.3.0.1
#
DISCID=a20a5c0c
DTITLE=Natalia Oreiro
DYEAR=1999
DGENRE=Latin
TTITLE0=De Tu Amor
TTITLE1=Uruguay
TTITLE2=Se Pego En Mi Piel
TTITLE3=Me Muero De Amor
TTITLE4=Cambio Dolor
TTITLE5=Valor
TTITLE6=Sabrosito Y Dulzon
TTITLE7=Vengo Del Mar
TTITLE8=Huracan
TTITLE9=Nada Mas Que Hablar
TTITLE10=Y Te Vas Conmigo
TTITLE11=Que Si, Que Si (Bonus Track)
EXTD=
EXTT0=
EXTT1=
EXTT2=
EXTT3=
EXTT4=
EXTT5=
EXTT6=
EXTT7=
EXTT8=
EXTT9=
EXTT10=
EXTT11=
PLAYORDER=
